<svg width="337" height="18" viewBox="0 0 337 18" fill="none" xmlns="http://www.w3.org/2000/svg">
<path d="M14.105 13V4.27273H15.1618V12.0625H19.2186V13H14.105ZM20.7186 13V6.45455H21.7243V13H20.7186ZM21.23 5.36364C21.034 5.36364 20.8649 5.29688 20.7229 5.16335C20.5837 5.02983 20.5141 4.86932 20.5141 4.68182C20.5141 4.49432 20.5837 4.33381 20.7229 4.20028C20.8649 4.06676 21.034 4 21.23 4C21.426 4 21.5936 4.06676 21.7328 4.20028C21.8749 4.33381 21.9459 4.49432 21.9459 4.68182C21.9459 4.86932 21.8749 5.02983 21.7328 5.16335C21.5936 5.29688 21.426 5.36364 21.23 5.36364ZM24.572 9.0625V13H23.5663V6.45455H24.5379V7.47727H24.6231C24.7765 7.14489 25.0095 6.87784 25.322 6.67614C25.6345 6.47159 26.0379 6.36932 26.5322 6.36932C26.9754 6.36932 27.3632 6.46023 27.6956 6.64205C28.0279 6.82102 28.2865 7.09375 28.4711 7.46023C28.6558 7.82386 28.7481 8.28409 28.7481 8.84091V13H27.7424V8.90909C27.7424 8.39489 27.6089 7.99432 27.3419 7.70739C27.0748 7.41761 26.7083 7.27273 26.2424 7.27273C25.9214 7.27273 25.6345 7.34233 25.3816 7.48153C25.1316 7.62074 24.9342 7.82386 24.7893 8.09091C24.6444 8.35795 24.572 8.68182 24.572 9.0625ZM34.7108 10.3239V6.45455H35.7165V13H34.7108V11.892H34.6426C34.4892 12.2244 34.2506 12.5071 33.9267 12.7401C33.6029 12.9702 33.1938 13.0852 32.6995 13.0852C32.2904 13.0852 31.9267 12.9957 31.6085 12.8168C31.2904 12.6349 31.0404 12.3622 30.8585 11.9986C30.6767 11.6321 30.5858 11.1705 30.5858 10.6136V6.45455H31.5915V10.5455C31.5915 11.0227 31.725 11.4034 31.9921 11.6875C32.262 11.9716 32.6057 12.1136 33.0233 12.1136C33.2733 12.1136 33.5276 12.0497 33.7861 11.9219C34.0475 11.794 34.2662 11.598 34.4424 11.3338C34.6213 11.0696 34.7108 10.733 34.7108 10.3239ZM38.3085 6.45455L39.8767 9.13068L41.4448 6.45455H42.6039L40.4903 9.72727L42.6039 13H41.4448L39.8767 10.4602L38.3085 13H37.1494L39.2289 9.72727L37.1494 6.45455H38.3085Z" fill="black" fill-opacity="0.4"/>
<path d="M73.2365 4.27273H74.4979L77.4638 11.517H77.5661L80.532 4.27273H81.7933V13H80.8047V6.36932H80.7195L77.9922 13H77.0377L74.3104 6.36932H74.2252V13H73.2365V4.27273ZM85.7021 13.1534C85.2873 13.1534 84.9109 13.0753 84.5728 12.919C84.2348 12.7599 83.9663 12.5312 83.7674 12.233C83.5686 11.9318 83.4691 11.5682 83.4691 11.142C83.4691 10.767 83.543 10.4631 83.6907 10.2301C83.8384 9.99432 84.0359 9.80966 84.283 9.67614C84.5302 9.54261 84.8029 9.44318 85.1012 9.37784C85.4024 9.30966 85.7049 9.25568 86.0089 9.21591C86.4066 9.16477 86.7291 9.12642 86.9762 9.10085C87.2262 9.07244 87.408 9.02557 87.5217 8.96023C87.6382 8.89489 87.6964 8.78125 87.6964 8.61932V8.58523C87.6964 8.16477 87.5813 7.83807 87.3512 7.60511C87.124 7.37216 86.7788 7.25568 86.3157 7.25568C85.8356 7.25568 85.4592 7.3608 85.1865 7.57102C84.9137 7.78125 84.722 8.00568 84.6112 8.24432L83.6566 7.90341C83.8271 7.50568 84.0544 7.19602 84.3384 6.97443C84.6254 6.75 84.9379 6.59375 85.2759 6.50568C85.6169 6.41477 85.9521 6.36932 86.2816 6.36932C86.4919 6.36932 86.7333 6.39489 87.0061 6.44602C87.2816 6.49432 87.5473 6.59517 87.8029 6.74858C88.0615 6.90199 88.2759 7.13352 88.4464 7.44318C88.6169 7.75284 88.7021 8.16761 88.7021 8.6875V13H87.6964V12.1136H87.6453C87.5771 12.2557 87.4634 12.4077 87.3044 12.5696C87.1453 12.7315 86.9336 12.8693 86.6694 12.983C86.4052 13.0966 86.0828 13.1534 85.7021 13.1534ZM85.8555 12.25C86.2532 12.25 86.5884 12.1719 86.8612 12.0156C87.1367 11.8594 87.3441 11.6577 87.4833 11.4105C87.6254 11.1634 87.6964 10.9034 87.6964 10.6307V9.71023C87.6538 9.76136 87.56 9.80824 87.4151 9.85085C87.2731 9.89062 87.1083 9.92614 86.9208 9.95739C86.7362 9.9858 86.5558 10.0114 86.3796 10.0341C86.2063 10.054 86.0657 10.071 85.9578 10.0852C85.6964 10.1193 85.4521 10.1747 85.2248 10.2514C85.0004 10.3253 84.8186 10.4375 84.6794 10.5881C84.543 10.7358 84.4748 10.9375 84.4748 11.1932C84.4748 11.5426 84.6041 11.8068 84.8626 11.9858C85.124 12.1619 85.4549 12.25 85.8555 12.25ZM93.1968 13.1364C92.5831 13.1364 92.0547 12.9915 91.6115 12.7017C91.1683 12.4119 90.8274 12.0128 90.5888 11.5043C90.3502 10.9957 90.2308 10.4148 90.2308 9.76136C90.2308 9.09659 90.353 8.50994 90.5973 8.00142C90.8445 7.49006 91.1882 7.09091 91.6286 6.80398C92.0718 6.5142 92.5888 6.36932 93.1797 6.36932C93.6399 6.36932 94.0547 6.45455 94.424 6.625C94.7933 6.79545 95.0959 7.03409 95.3317 7.34091C95.5675 7.64773 95.7138 8.00568 95.7706 8.41477H94.7649C94.6882 8.11648 94.5178 7.85227 94.2536 7.62216C93.9922 7.3892 93.6399 7.27273 93.1968 7.27273C92.8047 7.27273 92.461 7.375 92.1655 7.57955C91.8729 7.78125 91.6442 8.06676 91.4794 8.43608C91.3175 8.80256 91.2365 9.23295 91.2365 9.72727C91.2365 10.233 91.3161 10.6733 91.4752 11.0483C91.6371 11.4233 91.8644 11.7145 92.157 11.9219C92.4524 12.1293 92.799 12.233 93.1968 12.233C93.4581 12.233 93.6953 12.1875 93.9084 12.0966C94.1215 12.0057 94.3019 11.875 94.4496 11.7045C94.5973 11.5341 94.7024 11.3295 94.7649 11.0909H95.7706C95.7138 11.4773 95.5732 11.8253 95.3487 12.1349C95.1272 12.4418 94.8331 12.6861 94.4666 12.8679C94.103 13.0469 93.6797 13.1364 93.1968 13.1364Z" fill="black" fill-opacity="0.4"/>
<path d="M131.517 13V6.45455H132.522V13H131.517ZM132.028 5.36364C131.832 5.36364 131.663 5.29688 131.521 5.16335C131.382 5.02983 131.312 4.86932 131.312 4.68182C131.312 4.49432 131.382 4.33381 131.521 4.20028C131.663 4.06676 131.832 4 132.028 4C132.224 4 132.392 4.06676 132.531 4.20028C132.673 4.33381 132.744 4.49432 132.744 4.68182C132.744 4.86932 132.673 5.02983 132.531 5.16335C132.392 5.29688 132.224 5.36364 132.028 5.36364ZM141.864 8.63636C141.864 9.55682 141.698 10.3523 141.366 11.0227C141.033 11.6932 140.578 12.2102 139.998 12.5739C139.418 12.9375 138.756 13.1193 138.012 13.1193C137.268 13.1193 136.606 12.9375 136.026 12.5739C135.447 12.2102 134.991 11.6932 134.658 11.0227C134.326 10.3523 134.16 9.55682 134.16 8.63636C134.16 7.71591 134.326 6.92045 134.658 6.25C134.991 5.57955 135.447 5.0625 136.026 4.69886C136.606 4.33523 137.268 4.15341 138.012 4.15341C138.756 4.15341 139.418 4.33523 139.998 4.69886C140.578 5.0625 141.033 5.57955 141.366 6.25C141.698 6.92045 141.864 7.71591 141.864 8.63636ZM140.842 8.63636C140.842 7.88068 140.715 7.2429 140.462 6.72301C140.212 6.20312 139.873 5.80966 139.444 5.54261C139.018 5.27557 138.541 5.14205 138.012 5.14205C137.484 5.14205 137.005 5.27557 136.576 5.54261C136.15 5.80966 135.81 6.20312 135.558 6.72301C135.308 7.2429 135.183 7.88068 135.183 8.63636C135.183 9.39205 135.308 10.0298 135.558 10.5497C135.81 11.0696 136.15 11.4631 136.576 11.7301C137.005 11.9972 137.484 12.1307 138.012 12.1307C138.541 12.1307 139.018 11.9972 139.444 11.7301C139.873 11.4631 140.212 11.0696 140.462 10.5497C140.715 10.0298 140.842 9.39205 140.842 8.63636ZM148.414 6.45455C148.363 6.02273 148.156 5.6875 147.792 5.44886C147.428 5.21023 146.982 5.09091 146.454 5.09091C146.068 5.09091 145.73 5.15341 145.44 5.27841C145.153 5.40341 144.928 5.57528 144.766 5.79403C144.607 6.01278 144.528 6.26136 144.528 6.53977C144.528 6.77273 144.583 6.97301 144.694 7.14062C144.808 7.3054 144.953 7.44318 145.129 7.55398C145.305 7.66193 145.489 7.75142 145.683 7.82244C145.876 7.89062 146.053 7.94602 146.215 7.98864L147.102 8.22727C147.329 8.28693 147.582 8.36932 147.86 8.47443C148.141 8.57955 148.41 8.72301 148.666 8.90483C148.924 9.08381 149.137 9.31392 149.305 9.59517C149.472 9.87642 149.556 10.2216 149.556 10.6307C149.556 11.1023 149.433 11.5284 149.185 11.9091C148.941 12.2898 148.583 12.5923 148.112 12.8168C147.643 13.0412 147.073 13.1534 146.403 13.1534C145.778 13.1534 145.237 13.0526 144.779 12.8509C144.325 12.6491 143.967 12.3679 143.705 12.0071C143.447 11.6463 143.301 11.2273 143.266 10.75H144.357C144.386 11.0795 144.497 11.3523 144.69 11.5682C144.886 11.7812 145.133 11.9403 145.431 12.0455C145.732 12.1477 146.056 12.1989 146.403 12.1989C146.806 12.1989 147.168 12.1335 147.489 12.0028C147.81 11.8693 148.065 11.6847 148.252 11.4489C148.44 11.2102 148.533 10.9318 148.533 10.6136C148.533 10.3239 148.453 10.0881 148.291 9.90625C148.129 9.72443 147.916 9.5767 147.651 9.46307C147.387 9.34943 147.102 9.25 146.795 9.16477L145.721 8.85795C145.039 8.66193 144.499 8.3821 144.102 8.01847C143.704 7.65483 143.505 7.17898 143.505 6.59091C143.505 6.10227 143.637 5.67614 143.901 5.3125C144.168 4.94602 144.526 4.66193 144.975 4.46023C145.427 4.25568 145.931 4.15341 146.488 4.15341C147.051 4.15341 147.551 4.25426 147.988 4.45597C148.426 4.65483 148.772 4.92756 149.028 5.27415C149.286 5.62074 149.423 6.0142 149.437 6.45455H148.414Z" fill="black" fill-opacity="0.4"/>
<path d="M173.391 13L171.005 4.27273H172.079L173.903 11.3807H173.988L175.846 4.27273H177.039L178.897 11.3807H178.982L180.806 4.27273H181.88L179.494 13H178.403L176.477 6.04545H176.408L174.482 13H173.391ZM183.06 13V6.45455H184.066V13H183.06ZM183.572 5.36364C183.376 5.36364 183.207 5.29688 183.065 5.16335C182.925 5.02983 182.856 4.86932 182.856 4.68182C182.856 4.49432 182.925 4.33381 183.065 4.20028C183.207 4.06676 183.376 4 183.572 4C183.768 4 183.935 4.06676 184.075 4.20028C184.217 4.33381 184.288 4.49432 184.288 4.68182C184.288 4.86932 184.217 5.02983 184.075 5.16335C183.935 5.29688 183.768 5.36364 183.572 5.36364ZM186.914 9.0625V13H185.908V6.45455H186.88V7.47727H186.965C187.118 7.14489 187.351 6.87784 187.664 6.67614C187.976 6.47159 188.38 6.36932 188.874 6.36932C189.317 6.36932 189.705 6.46023 190.037 6.64205C190.37 6.82102 190.628 7.09375 190.813 7.46023C190.998 7.82386 191.09 8.28409 191.09 8.84091V13H190.084V8.90909C190.084 8.39489 189.951 7.99432 189.684 7.70739C189.417 7.41761 189.05 7.27273 188.584 7.27273C188.263 7.27273 187.976 7.34233 187.723 7.48153C187.473 7.62074 187.276 7.82386 187.131 8.09091C186.986 8.35795 186.914 8.68182 186.914 9.0625ZM195.399 13.1364C194.854 13.1364 194.372 12.9986 193.955 12.723C193.537 12.4446 193.21 12.0526 192.974 11.5469C192.739 11.0384 192.621 10.4375 192.621 9.74432C192.621 9.05682 192.739 8.46023 192.974 7.95455C193.21 7.44886 193.538 7.05824 193.959 6.78267C194.379 6.5071 194.865 6.36932 195.416 6.36932C195.842 6.36932 196.179 6.44034 196.426 6.58239C196.676 6.72159 196.867 6.88068 196.997 7.05966C197.131 7.2358 197.234 7.38068 197.308 7.49432H197.394V4.27273H198.399V13H197.428V11.9943H197.308C197.234 12.1136 197.129 12.2642 196.993 12.446C196.857 12.625 196.662 12.7855 196.409 12.9276C196.156 13.0668 195.82 13.1364 195.399 13.1364ZM195.536 12.233C195.939 12.233 196.28 12.1278 196.558 11.9176C196.837 11.7045 197.048 11.4105 197.193 11.0355C197.338 10.6577 197.411 10.2216 197.411 9.72727C197.411 9.23864 197.34 8.81108 197.198 8.4446C197.055 8.07528 196.845 7.78835 196.567 7.58381C196.288 7.37642 195.945 7.27273 195.536 7.27273C195.109 7.27273 194.754 7.3821 194.47 7.60085C194.189 7.81676 193.977 8.1108 193.835 8.48295C193.696 8.85227 193.626 9.26705 193.626 9.72727C193.626 10.1932 193.698 10.6165 193.84 10.9972C193.984 11.375 194.198 11.6761 194.479 11.9006C194.763 12.1222 195.115 12.233 195.536 12.233ZM203.04 13.1364C202.449 13.1364 201.93 12.9957 201.484 12.7145C201.041 12.4332 200.695 12.0398 200.445 11.5341C200.198 11.0284 200.074 10.4375 200.074 9.76136C200.074 9.07955 200.198 8.48437 200.445 7.97585C200.695 7.46733 201.041 7.07244 201.484 6.79119C201.93 6.50994 202.449 6.36932 203.04 6.36932C203.631 6.36932 204.148 6.50994 204.591 6.79119C205.037 7.07244 205.384 7.46733 205.631 7.97585C205.881 8.48437 206.006 9.07955 206.006 9.76136C206.006 10.4375 205.881 11.0284 205.631 11.5341C205.384 12.0398 205.037 12.4332 204.591 12.7145C204.148 12.9957 203.631 13.1364 203.04 13.1364ZM203.04 12.233C203.489 12.233 203.858 12.1179 204.148 11.8878C204.438 11.6577 204.652 11.3551 204.791 10.9801C204.93 10.6051 205 10.1989 205 9.76136C205 9.32386 204.93 8.91619 204.791 8.53835C204.652 8.16051 204.438 7.85511 204.148 7.62216C203.858 7.3892 203.489 7.27273 203.04 7.27273C202.591 7.27273 202.222 7.3892 201.932 7.62216C201.642 7.85511 201.428 8.16051 201.288 8.53835C201.149 8.91619 201.08 9.32386 201.08 9.76136C201.08 10.1989 201.149 10.6051 201.288 10.9801C201.428 11.3551 201.642 11.6577 201.932 11.8878C202.222 12.1179 202.591 12.233 203.04 12.233ZM208.801 13L206.807 6.45455H207.864L209.278 11.4659H209.347L210.744 6.45455H211.818L213.199 11.4489H213.267L214.682 6.45455H215.739L213.744 13H212.756L211.324 7.97159H211.222L209.79 13H208.801ZM221.705 7.92045L220.801 8.17614C220.744 8.02557 220.661 7.87926 220.55 7.73722C220.442 7.59233 220.294 7.47301 220.107 7.37926C219.919 7.28551 219.679 7.23864 219.386 7.23864C218.986 7.23864 218.652 7.33097 218.385 7.51562C218.121 7.69744 217.989 7.92898 217.989 8.21023C217.989 8.46023 218.08 8.65767 218.261 8.80256C218.443 8.94744 218.727 9.06818 219.114 9.16477L220.085 9.40341C220.671 9.54545 221.107 9.76278 221.394 10.0554C221.68 10.3452 221.824 10.7187 221.824 11.1761C221.824 11.5511 221.716 11.8864 221.5 12.1818C221.287 12.4773 220.989 12.7102 220.605 12.8807C220.222 13.0511 219.776 13.1364 219.267 13.1364C218.599 13.1364 218.047 12.9915 217.609 12.7017C217.172 12.4119 216.895 11.9886 216.778 11.4318L217.733 11.1932C217.824 11.5455 217.996 11.8097 218.249 11.9858C218.504 12.1619 218.838 12.25 219.25 12.25C219.719 12.25 220.091 12.1506 220.367 11.9517C220.645 11.75 220.784 11.5085 220.784 11.2273C220.784 11 220.705 10.8097 220.546 10.6562C220.386 10.5 220.142 10.3835 219.813 10.3068L218.722 10.0511C218.122 9.90909 217.682 9.68892 217.401 9.39062C217.122 9.08949 216.983 8.71307 216.983 8.26136C216.983 7.89205 217.087 7.56534 217.294 7.28125C217.504 6.99716 217.79 6.77415 218.151 6.61222C218.514 6.45028 218.926 6.36932 219.386 6.36932C220.034 6.36932 220.543 6.51136 220.912 6.79545C221.284 7.07955 221.548 7.45455 221.705 7.92045Z" fill="black" fill-opacity="0.4"/>
<path d="M232.01 13H230.903L234.107 4.27273H235.198L238.403 13H237.295L234.687 5.65341H234.618L232.01 13ZM232.42 9.59091H236.885V10.5284H232.42V9.59091ZM240.631 9.0625V13H239.626V6.45455H240.597V7.47727H240.682C240.836 7.14489 241.069 6.87784 241.381 6.67614C241.694 6.47159 242.097 6.36932 242.591 6.36932C243.035 6.36932 243.422 6.46023 243.755 6.64205C244.087 6.82102 244.346 7.09375 244.53 7.46023C244.715 7.82386 244.807 8.28409 244.807 8.84091V13H243.802V8.90909C243.802 8.39489 243.668 7.99432 243.401 7.70739C243.134 7.41761 242.768 7.27273 242.302 7.27273C241.981 7.27273 241.694 7.34233 241.441 7.48153C241.191 7.62074 240.993 7.82386 240.849 8.09091C240.704 8.35795 240.631 8.68182 240.631 9.0625ZM249.117 13.1364C248.571 13.1364 248.09 12.9986 247.672 12.723C247.254 12.4446 246.928 12.0526 246.692 11.5469C246.456 11.0384 246.338 10.4375 246.338 9.74432C246.338 9.05682 246.456 8.46023 246.692 7.95455C246.928 7.44886 247.256 7.05824 247.676 6.78267C248.097 6.5071 248.583 6.36932 249.134 6.36932C249.56 6.36932 249.897 6.44034 250.144 6.58239C250.394 6.72159 250.584 6.88068 250.715 7.05966C250.848 7.2358 250.952 7.38068 251.026 7.49432H251.111V4.27273H252.117V13H251.145V11.9943H251.026C250.952 12.1136 250.847 12.2642 250.71 12.446C250.574 12.625 250.379 12.7855 250.127 12.9276C249.874 13.0668 249.537 13.1364 249.117 13.1364ZM249.253 12.233C249.656 12.233 249.997 12.1278 250.276 11.9176C250.554 11.7045 250.766 11.4105 250.911 11.0355C251.056 10.6577 251.128 10.2216 251.128 9.72727C251.128 9.23864 251.057 8.81108 250.915 8.4446C250.773 8.07528 250.563 7.78835 250.284 7.58381C250.006 7.37642 249.662 7.27273 249.253 7.27273C248.827 7.27273 248.472 7.3821 248.188 7.60085C247.906 7.81676 247.695 8.1108 247.553 8.48295C247.414 8.85227 247.344 9.26705 247.344 9.72727C247.344 10.1932 247.415 10.6165 247.557 10.9972C247.702 11.375 247.915 11.6761 248.196 11.9006C248.48 12.1222 248.833 12.233 249.253 12.233ZM254.098 13V6.45455H255.07V7.44318H255.138C255.257 7.11932 255.473 6.85653 255.786 6.65483C256.098 6.45312 256.45 6.35227 256.843 6.35227C256.916 6.35227 257.009 6.35369 257.12 6.35653C257.23 6.35937 257.314 6.36364 257.371 6.36932V7.39205C257.337 7.38352 257.259 7.37074 257.137 7.35369C257.017 7.33381 256.891 7.32386 256.757 7.32386C256.439 7.32386 256.155 7.39062 255.905 7.52415C255.658 7.65483 255.462 7.83665 255.317 8.0696C255.175 8.29972 255.104 8.5625 255.104 8.85795V13H254.098ZM261.023 13.1364C260.432 13.1364 259.914 12.9957 259.468 12.7145C259.024 12.4332 258.678 12.0398 258.428 11.5341C258.181 11.0284 258.057 10.4375 258.057 9.76136C258.057 9.07955 258.181 8.48437 258.428 7.97585C258.678 7.46733 259.024 7.07244 259.468 6.79119C259.914 6.50994 260.432 6.36932 261.023 6.36932C261.614 6.36932 262.131 6.50994 262.574 6.79119C263.02 7.07244 263.367 7.46733 263.614 7.97585C263.864 8.48437 263.989 9.07955 263.989 9.76136C263.989 10.4375 263.864 11.0284 263.614 11.5341C263.367 12.0398 263.02 12.4332 262.574 12.7145C262.131 12.9957 261.614 13.1364 261.023 13.1364ZM261.023 12.233C261.472 12.233 261.841 12.1179 262.131 11.8878C262.421 11.6577 262.635 11.3551 262.774 10.9801C262.914 10.6051 262.983 10.1989 262.983 9.76136C262.983 9.32386 262.914 8.91619 262.774 8.53835C262.635 8.16051 262.421 7.85511 262.131 7.62216C261.841 7.3892 261.472 7.27273 261.023 7.27273C260.574 7.27273 260.205 7.3892 259.915 7.62216C259.625 7.85511 259.411 8.16051 259.272 8.53835C259.132 8.91619 259.063 9.32386 259.063 9.76136C259.063 10.1989 259.132 10.6051 259.272 10.9801C259.411 11.3551 259.625 11.6577 259.915 11.8878C260.205 12.1179 260.574 12.233 261.023 12.233ZM265.524 13V6.45455H266.53V13H265.524ZM266.035 5.36364C265.839 5.36364 265.67 5.29688 265.528 5.16335C265.389 5.02983 265.319 4.86932 265.319 4.68182C265.319 4.49432 265.389 4.33381 265.528 4.20028C265.67 4.06676 265.839 4 266.035 4C266.231 4 266.399 4.06676 266.538 4.20028C266.68 4.33381 266.751 4.49432 266.751 4.68182C266.751 4.86932 266.68 5.02983 266.538 5.16335C266.399 5.29688 266.231 5.36364 266.035 5.36364ZM270.843 13.1364C270.298 13.1364 269.816 12.9986 269.399 12.723C268.981 12.4446 268.654 12.0526 268.419 11.5469C268.183 11.0384 268.065 10.4375 268.065 9.74432C268.065 9.05682 268.183 8.46023 268.419 7.95455C268.654 7.44886 268.982 7.05824 269.403 6.78267C269.823 6.5071 270.309 6.36932 270.86 6.36932C271.286 6.36932 271.623 6.44034 271.87 6.58239C272.12 6.72159 272.311 6.88068 272.441 7.05966C272.575 7.2358 272.678 7.38068 272.752 7.49432H272.838V4.27273H273.843V13H272.872V11.9943H272.752C272.678 12.1136 272.573 12.2642 272.437 12.446C272.301 12.625 272.106 12.7855 271.853 12.9276C271.6 13.0668 271.264 13.1364 270.843 13.1364ZM270.98 12.233C271.383 12.233 271.724 12.1278 272.002 11.9176C272.281 11.7045 272.492 11.4105 272.637 11.0355C272.782 10.6577 272.855 10.2216 272.855 9.72727C272.855 9.23864 272.784 8.81108 272.642 8.4446C272.499 8.07528 272.289 7.78835 272.011 7.58381C271.732 7.37642 271.389 7.27273 270.98 7.27273C270.553 7.27273 270.198 7.3821 269.914 7.60085C269.633 7.81676 269.421 8.1108 269.279 8.48295C269.14 8.85227 269.071 9.26705 269.071 9.72727C269.071 10.1932 269.142 10.6165 269.284 10.9972C269.428 11.375 269.642 11.6761 269.923 11.9006C270.207 12.1222 270.559 12.233 270.98 12.233Z" fill="black" fill-opacity="0.4"/>
<path d="M301.247 8.63636C301.247 9.55682 301.081 10.3523 300.749 11.0227C300.416 11.6932 299.96 12.2102 299.381 12.5739C298.801 12.9375 298.139 13.1193 297.395 13.1193C296.651 13.1193 295.989 12.9375 295.409 12.5739C294.83 12.2102 294.374 11.6932 294.041 11.0227C293.709 10.3523 293.543 9.55682 293.543 8.63636C293.543 7.71591 293.709 6.92045 294.041 6.25C294.374 5.57955 294.83 5.0625 295.409 4.69886C295.989 4.33523 296.651 4.15341 297.395 4.15341C298.139 4.15341 298.801 4.33523 299.381 4.69886C299.96 5.0625 300.416 5.57955 300.749 6.25C301.081 6.92045 301.247 7.71591 301.247 8.63636ZM300.225 8.63636C300.225 7.88068 300.098 7.2429 299.845 6.72301C299.595 6.20312 299.256 5.80966 298.827 5.54261C298.401 5.27557 297.923 5.14205 297.395 5.14205C296.867 5.14205 296.388 5.27557 295.959 5.54261C295.533 5.80966 295.193 6.20312 294.94 6.72301C294.69 7.2429 294.565 7.88068 294.565 8.63636C294.565 9.39205 294.69 10.0298 294.94 10.5497C295.193 11.0696 295.533 11.4631 295.959 11.7301C296.388 11.9972 296.867 12.1307 297.395 12.1307C297.923 12.1307 298.401 11.9972 298.827 11.7301C299.256 11.4631 299.595 11.0696 299.845 10.5497C300.098 10.0298 300.225 9.39205 300.225 8.63636ZM305.735 6.45455V7.30682H302.342V6.45455H305.735ZM303.331 4.88636H304.337V11.125C304.337 11.4091 304.378 11.6222 304.46 11.7642C304.546 11.9034 304.654 11.9972 304.784 12.0455C304.918 12.0909 305.058 12.1136 305.206 12.1136C305.317 12.1136 305.408 12.108 305.479 12.0966C305.55 12.0824 305.607 12.071 305.649 12.0625L305.854 12.9659C305.786 12.9915 305.69 13.017 305.568 13.0426C305.446 13.071 305.291 13.0852 305.104 13.0852C304.82 13.0852 304.541 13.0241 304.269 12.902C303.999 12.7798 303.774 12.5938 303.595 12.3438C303.419 12.0938 303.331 11.7784 303.331 11.3977V4.88636ZM308.394 9.0625V13H307.388V4.27273H308.394V7.47727H308.479C308.632 7.1392 308.862 6.87074 309.169 6.67188C309.479 6.47017 309.891 6.36932 310.405 6.36932C310.851 6.36932 311.242 6.45881 311.577 6.63778C311.912 6.81392 312.172 7.08523 312.357 7.4517C312.544 7.81534 312.638 8.27841 312.638 8.84091V13H311.632V8.90909C311.632 8.3892 311.497 7.98722 311.227 7.70312C310.96 7.41619 310.59 7.27273 310.115 7.27273C309.786 7.27273 309.49 7.34233 309.229 7.48153C308.97 7.62074 308.766 7.82386 308.615 8.09091C308.467 8.35795 308.394 8.68182 308.394 9.0625ZM317.222 13.1364C316.591 13.1364 316.047 12.9972 315.59 12.7188C315.135 12.4375 314.785 12.0455 314.537 11.5426C314.293 11.0369 314.171 10.4489 314.171 9.77841C314.171 9.10795 314.293 8.51705 314.537 8.00568C314.785 7.49148 315.128 7.09091 315.569 6.80398C316.012 6.5142 316.529 6.36932 317.12 6.36932C317.461 6.36932 317.797 6.42614 318.13 6.53977C318.462 6.65341 318.765 6.83807 319.037 7.09375C319.31 7.34659 319.527 7.68182 319.689 8.09943C319.851 8.51705 319.932 9.03125 319.932 9.64205V10.0682H314.887V9.19886H318.91C318.91 8.82955 318.836 8.5 318.688 8.21023C318.543 7.92045 318.336 7.69176 318.066 7.52415C317.799 7.35653 317.483 7.27273 317.12 7.27273C316.719 7.27273 316.373 7.37216 316.08 7.57102C315.79 7.76705 315.567 8.02273 315.411 8.33807C315.255 8.65341 315.177 8.99148 315.177 9.35227V9.93182C315.177 10.4261 315.262 10.8452 315.432 11.1889C315.606 11.5298 315.846 11.7898 316.152 11.9688C316.459 12.1449 316.816 12.233 317.222 12.233C317.486 12.233 317.725 12.196 317.938 12.1222C318.154 12.0455 318.34 11.9318 318.496 11.7812C318.652 11.6278 318.773 11.4375 318.858 11.2102L319.83 11.483C319.728 11.8125 319.556 12.1023 319.314 12.3523C319.073 12.5994 318.775 12.7926 318.42 12.9318C318.064 13.0682 317.665 13.1364 317.222 13.1364ZM321.462 13V6.45455H322.434V7.44318H322.502C322.621 7.11932 322.837 6.85653 323.15 6.65483C323.462 6.45312 323.814 6.35227 324.206 6.35227C324.28 6.35227 324.373 6.35369 324.483 6.35653C324.594 6.35937 324.678 6.36364 324.735 6.36932V7.39205C324.701 7.38352 324.623 7.37074 324.5 7.35369C324.381 7.33381 324.255 7.32386 324.121 7.32386C323.803 7.32386 323.519 7.39062 323.269 7.52415C323.022 7.65483 322.826 7.83665 322.681 8.0696C322.539 8.29972 322.468 8.5625 322.468 8.85795V13H321.462Z" fill="black" fill-opacity="0.4"/>
</svg>
