<svg width="24" height="206" viewBox="0 0 24 206" fill="none" xmlns="http://www.w3.org/2000/svg">
<path d="M4.4169 4.27273V13H3.36009V5.38068H3.30895L1.17827 6.79545V5.72159L3.36009 4.27273H4.4169ZM9.65412 13.1193C9.15412 13.1193 8.70384 13.0199 8.30327 12.821C7.9027 12.6222 7.58168 12.3494 7.3402 12.0028C7.09872 11.6562 6.96662 11.2614 6.94389 10.8182H7.96662C8.00639 11.2131 8.18537 11.5398 8.50355 11.7983C8.82457 12.054 9.2081 12.1818 9.65412 12.1818C10.0121 12.1818 10.3303 12.098 10.6087 11.9304C10.8899 11.7628 11.1101 11.5327 11.2692 11.2401C11.4311 10.9446 11.5121 10.6108 11.5121 10.2386C11.5121 9.85795 11.4283 9.51847 11.2607 9.22017C11.0959 8.91903 10.8686 8.68182 10.5788 8.50852C10.2891 8.33523 9.9581 8.24716 9.58594 8.24432C9.31889 8.24148 9.04474 8.28267 8.76349 8.3679C8.48224 8.45028 8.25071 8.55682 8.06889 8.6875L7.08026 8.56818L7.60866 4.27273H12.1428V5.21023H8.49503L8.18821 7.78409H8.23935C8.41832 7.64205 8.64276 7.52415 8.91264 7.4304C9.18253 7.33665 9.46378 7.28977 9.75639 7.28977C10.2905 7.28977 10.7663 7.41761 11.1839 7.6733C11.6044 7.92614 11.9339 8.27273 12.1726 8.71307C12.4141 9.15341 12.5348 9.65625 12.5348 10.2216C12.5348 10.7784 12.4098 11.2756 12.1598 11.7131C11.9126 12.1477 11.5717 12.4915 11.1371 12.7443C10.7024 12.9943 10.2081 13.1193 9.65412 13.1193ZM14.381 4.27273H15.6424L18.6083 11.517H18.7106L21.6765 4.27273H22.9379V13H21.9492V6.36932H21.864L19.1367 13H18.1822L15.4549 6.36932H15.3697V13H14.381V4.27273Z" fill="black" fill-opacity="0.4"/>
<path d="M4.21768 51.2727V60H3.16087V52.3807H3.10973L0.979048 53.7955V52.7216L3.16087 51.2727H4.21768ZM9.57422 60.1193C8.93217 60.1193 8.3853 59.9446 7.93359 59.5952C7.48189 59.2429 7.13672 58.733 6.89808 58.0653C6.65945 57.3949 6.54013 56.5852 6.54013 55.6364C6.54013 54.6932 6.65945 53.8878 6.89808 53.2202C7.13956 52.5497 7.48615 52.0384 7.93786 51.6861C8.3924 51.331 8.93786 51.1534 9.57422 51.1534C10.2106 51.1534 10.7546 51.331 11.2063 51.6861C11.6609 52.0384 12.0075 52.5497 12.2461 53.2202C12.4876 53.8878 12.6083 54.6932 12.6083 55.6364C12.6083 56.5852 12.489 57.3949 12.2504 58.0653C12.0117 58.733 11.6665 59.2429 11.2148 59.5952C10.7631 59.9446 10.2163 60.1193 9.57422 60.1193ZM9.57422 59.1818C10.2106 59.1818 10.7049 58.875 11.0572 58.2614C11.4094 57.6477 11.5856 56.7727 11.5856 55.6364C11.5856 54.8807 11.5046 54.2372 11.3427 53.706C11.1836 53.1747 10.9535 52.7699 10.6523 52.4915C10.354 52.2131 9.99467 52.0739 9.57422 52.0739C8.94354 52.0739 8.45064 52.3849 8.09553 53.0071C7.74041 53.6264 7.56286 54.5028 7.56286 55.6364C7.56286 56.392 7.6424 57.0341 7.80149 57.5625C7.96058 58.0909 8.18928 58.4929 8.48757 58.7685C8.78871 59.044 9.15092 59.1818 9.57422 59.1818ZM14.381 51.2727H15.6424L18.6083 58.517H18.7106L21.6765 51.2727H22.9379V60H21.9492V53.3693H21.864L19.1367 60H18.1822L15.4549 53.3693H15.3697V60H14.381V51.2727Z" fill="black" fill-opacity="0.4"/>
<path d="M9.65412 107.119C9.15412 107.119 8.70384 107.02 8.30327 106.821C7.9027 106.622 7.58168 106.349 7.3402 106.003C7.09872 105.656 6.96662 105.261 6.94389 104.818H7.96662C8.00639 105.213 8.18537 105.54 8.50355 105.798C8.82457 106.054 9.2081 106.182 9.65412 106.182C10.0121 106.182 10.3303 106.098 10.6087 105.93C10.8899 105.763 11.1101 105.533 11.2692 105.24C11.4311 104.945 11.5121 104.611 11.5121 104.239C11.5121 103.858 11.4283 103.518 11.2607 103.22C11.0959 102.919 10.8686 102.682 10.5788 102.509C10.2891 102.335 9.9581 102.247 9.58594 102.244C9.31889 102.241 9.04474 102.283 8.76349 102.368C8.48224 102.45 8.25071 102.557 8.06889 102.688L7.08026 102.568L7.60866 98.2727H12.1428V99.2102H8.49503L8.18821 101.784H8.23935C8.41832 101.642 8.64276 101.524 8.91264 101.43C9.18253 101.337 9.46378 101.29 9.75639 101.29C10.2905 101.29 10.7663 101.418 11.1839 101.673C11.6044 101.926 11.9339 102.273 12.1726 102.713C12.4141 103.153 12.5348 103.656 12.5348 104.222C12.5348 104.778 12.4098 105.276 12.1598 105.713C11.9126 106.148 11.5717 106.491 11.1371 106.744C10.7024 106.994 10.2081 107.119 9.65412 107.119ZM14.381 98.2727H15.6424L18.6083 105.517H18.7106L21.6765 98.2727H22.9379V107H21.9492V100.369H21.864L19.1367 107H18.1822L15.4549 100.369H15.3697V107H14.381V98.2727Z" fill="black" fill-opacity="0.4"/>
<path d="M11.7177 145.273V154H10.6609V146.381H10.6097L8.47905 147.795V146.722L10.6609 145.273H11.7177ZM14.381 145.273H15.6424L18.6083 152.517H18.7106L21.6765 145.273H22.9379V154H21.9492V147.369H21.864L19.1367 154H18.1822L15.4549 147.369H15.3697V154H14.381V145.273Z" fill="black" fill-opacity="0.4"/>
<path d="M20.25 201.119C19.608 201.119 19.0611 200.945 18.6094 200.595C18.1577 200.243 17.8125 199.733 17.5739 199.065C17.3352 198.395 17.2159 197.585 17.2159 196.636C17.2159 195.693 17.3352 194.888 17.5739 194.22C17.8153 193.55 18.1619 193.038 18.6136 192.686C19.0682 192.331 19.6136 192.153 20.25 192.153C20.8864 192.153 21.4304 192.331 21.8821 192.686C22.3366 193.038 22.6832 193.55 22.9219 194.22C23.1634 194.888 23.2841 195.693 23.2841 196.636C23.2841 197.585 23.1648 198.395 22.9261 199.065C22.6875 199.733 22.3423 200.243 21.8906 200.595C21.4389 200.945 20.892 201.119 20.25 201.119ZM20.25 200.182C20.8864 200.182 21.3807 199.875 21.733 199.261C22.0852 198.648 22.2614 197.773 22.2614 196.636C22.2614 195.881 22.1804 195.237 22.0185 194.706C21.8594 194.175 21.6293 193.77 21.3281 193.491C21.0298 193.213 20.6705 193.074 20.25 193.074C19.6193 193.074 19.1264 193.385 18.7713 194.007C18.4162 194.626 18.2386 195.503 18.2386 196.636C18.2386 197.392 18.3182 198.034 18.4773 198.562C18.6364 199.091 18.8651 199.493 19.1634 199.768C19.4645 200.044 19.8267 200.182 20.25 200.182Z" fill="black" fill-opacity="0.4"/>
</svg>
