<svg width="31" height="159" viewBox="0 0 31 159" fill="none" xmlns="http://www.w3.org/2000/svg">
<path d="M4.36541 4.15341C4.72337 4.15625 5.08132 4.22443 5.43928 4.35795C5.79723 4.49148 6.12393 4.71307 6.41939 5.02273C6.71484 5.32955 6.95206 5.74858 7.13104 6.27983C7.31001 6.81108 7.3995 7.47727 7.3995 8.27841C7.3995 9.05398 7.32564 9.7429 7.17791 10.3452C7.03303 10.9446 6.8228 11.4503 6.54723 11.8622C6.2745 12.2741 5.94212 12.5866 5.55007 12.7997C5.16087 13.0128 4.72053 13.1193 4.22905 13.1193C3.74041 13.1193 3.30433 13.0227 2.92081 12.8295C2.54013 12.6335 2.22763 12.3622 1.98331 12.0156C1.74183 11.6662 1.587 11.2614 1.51882 10.8011H2.55859C2.65234 11.2017 2.83842 11.5327 3.11683 11.794C3.39808 12.0526 3.76882 12.1818 4.22905 12.1818C4.90234 12.1818 5.43359 11.8878 5.8228 11.2997C6.21484 10.7116 6.41087 9.88068 6.41087 8.80682H6.34268C6.18359 9.04545 5.99467 9.25142 5.77592 9.42472C5.55717 9.59801 5.31428 9.73153 5.04723 9.82528C4.78018 9.91903 4.49609 9.96591 4.19496 9.96591C3.69496 9.96591 3.23615 9.84233 2.81854 9.59517C2.40376 9.34517 2.07138 9.00284 1.82138 8.56818C1.57422 8.13068 1.45064 7.63068 1.45064 7.06818C1.45064 6.53409 1.56996 6.04545 1.80859 5.60227C2.05007 5.15625 2.38814 4.80114 2.8228 4.53693C3.2603 4.27273 3.7745 4.14489 4.36541 4.15341ZM4.36541 5.09091C4.00746 5.09091 3.68501 5.1804 3.39808 5.35938C3.11399 5.53551 2.88814 5.77415 2.72053 6.07528C2.55575 6.37358 2.47337 6.70455 2.47337 7.06818C2.47337 7.43182 2.55291 7.76278 2.712 8.06108C2.87393 8.35653 3.09411 8.59233 3.37251 8.76847C3.65376 8.94176 3.97337 9.02841 4.33132 9.02841C4.60121 9.02841 4.85263 8.97585 5.08558 8.87074C5.31854 8.76278 5.52166 8.61648 5.69496 8.43182C5.87109 8.24432 6.00888 8.03267 6.10831 7.79688C6.20774 7.55824 6.25746 7.30966 6.25746 7.05114C6.25746 6.71023 6.17507 6.39062 6.0103 6.09233C5.84837 5.79403 5.62393 5.55256 5.337 5.3679C5.05291 5.18324 4.72905 5.09091 4.36541 5.09091ZM11.9219 13.1193C11.2798 13.1193 10.733 12.9446 10.2812 12.5952C9.82955 12.2429 9.48438 11.733 9.24574 11.0653C9.0071 10.3949 8.88778 9.58523 8.88778 8.63636C8.88778 7.69318 9.0071 6.88778 9.24574 6.22017C9.48722 5.54972 9.83381 5.03835 10.2855 4.68608C10.7401 4.33097 11.2855 4.15341 11.9219 4.15341C12.5582 4.15341 13.1023 4.33097 13.554 4.68608C14.0085 5.03835 14.3551 5.54972 14.5938 6.22017C14.8352 6.88778 14.956 7.69318 14.956 8.63636C14.956 9.58523 14.8366 10.3949 14.598 11.0653C14.3594 11.733 14.0142 12.2429 13.5625 12.5952C13.1108 12.9446 12.5639 13.1193 11.9219 13.1193ZM11.9219 12.1818C12.5582 12.1818 13.0526 11.875 13.4048 11.2614C13.7571 10.6477 13.9332 9.77273 13.9332 8.63636C13.9332 7.88068 13.8523 7.23722 13.6903 6.70597C13.5313 6.17472 13.3011 5.76989 13 5.49148C12.7017 5.21307 12.3423 5.07386 11.9219 5.07386C11.2912 5.07386 10.7983 5.38494 10.4432 6.0071C10.0881 6.62642 9.91051 7.50284 9.91051 8.63636C9.91051 9.39205 9.99006 10.0341 10.1491 10.5625C10.3082 11.0909 10.5369 11.4929 10.8352 11.7685C11.1364 12.044 11.4986 12.1818 11.9219 12.1818ZM19.4219 13.1193C18.7798 13.1193 18.233 12.9446 17.7812 12.5952C17.3295 12.2429 16.9844 11.733 16.7457 11.0653C16.5071 10.3949 16.3878 9.58523 16.3878 8.63636C16.3878 7.69318 16.5071 6.88778 16.7457 6.22017C16.9872 5.54972 17.3338 5.03835 17.7855 4.68608C18.2401 4.33097 18.7855 4.15341 19.4219 4.15341C20.0582 4.15341 20.6023 4.33097 21.054 4.68608C21.5085 5.03835 21.8551 5.54972 22.0938 6.22017C22.3352 6.88778 22.456 7.69318 22.456 8.63636C22.456 9.58523 22.3366 10.3949 22.098 11.0653C21.8594 11.733 21.5142 12.2429 21.0625 12.5952C20.6108 12.9446 20.0639 13.1193 19.4219 13.1193ZM19.4219 12.1818C20.0582 12.1818 20.5526 11.875 20.9048 11.2614C21.2571 10.6477 21.4332 9.77273 21.4332 8.63636C21.4332 7.88068 21.3523 7.23722 21.1903 6.70597C21.0313 6.17472 20.8011 5.76989 20.5 5.49148C20.2017 5.21307 19.8423 5.07386 19.4219 5.07386C18.7912 5.07386 18.2983 5.38494 17.9432 6.0071C17.5881 6.62642 17.4105 7.50284 17.4105 8.63636C17.4105 9.39205 17.4901 10.0341 17.6491 10.5625C17.8082 11.0909 18.0369 11.4929 18.3352 11.7685C18.6364 12.044 18.9986 12.1818 19.4219 12.1818ZM24.2287 13V4.27273H25.2855V8.60227H25.3878L29.3082 4.27273H30.6889L27.0241 8.21023L30.6889 13H29.4105L26.3764 8.94318L25.2855 10.1705V13H24.2287Z" fill="black" fill-opacity="0.4"/>
<path d="M4.48473 60.1193C4.12678 60.1136 3.76882 60.0455 3.41087 59.9148C3.05291 59.7841 2.72621 59.5639 2.43075 59.2543C2.1353 58.9418 1.89808 58.5199 1.71911 57.9886C1.54013 57.4545 1.45064 56.7841 1.45064 55.9773C1.45064 55.2045 1.52308 54.5199 1.66797 53.9233C1.81286 53.3239 2.02308 52.8196 2.29865 52.4105C2.57422 51.9986 2.90661 51.6861 3.29581 51.473C3.68786 51.2599 4.12962 51.1534 4.62109 51.1534C5.10973 51.1534 5.54439 51.2514 5.92507 51.4474C6.30859 51.6406 6.62109 51.9105 6.86257 52.2571C7.10405 52.6037 7.2603 53.0028 7.33132 53.4545H6.29155C6.19496 53.0625 6.00746 52.7372 5.72905 52.4787C5.45064 52.2202 5.08132 52.0909 4.62109 52.0909C3.94496 52.0909 3.41229 52.3849 3.02308 52.973C2.63672 53.5611 2.44212 54.3864 2.43928 55.4489H2.50746C2.66655 55.2074 2.85547 55.0014 3.07422 54.831C3.29581 54.6577 3.54013 54.5241 3.80717 54.4304C4.07422 54.3366 4.35689 54.2898 4.65518 54.2898C5.15518 54.2898 5.61257 54.4148 6.02734 54.6648C6.44212 54.9119 6.7745 55.2543 7.0245 55.6918C7.2745 56.1264 7.3995 56.625 7.3995 57.1875C7.3995 57.7273 7.27876 58.2216 7.03729 58.6705C6.79581 59.1165 6.45632 59.4716 6.01882 59.7358C5.58416 59.9972 5.0728 60.125 4.48473 60.1193ZM4.48473 59.1818C4.84268 59.1818 5.16371 59.0923 5.4478 58.9134C5.73473 58.7344 5.96058 58.4943 6.12536 58.1932C6.29297 57.892 6.37678 57.5568 6.37678 57.1875C6.37678 56.8267 6.29581 56.4986 6.13388 56.2031C5.97479 55.9048 5.75462 55.6676 5.47337 55.4915C5.19496 55.3153 4.87678 55.2273 4.51882 55.2273C4.24893 55.2273 3.99751 55.2812 3.76456 55.3892C3.53161 55.4943 3.32706 55.6392 3.15092 55.8239C2.97763 56.0085 2.84126 56.2202 2.74183 56.4588C2.6424 56.6946 2.59268 56.9432 2.59268 57.2045C2.59268 57.5511 2.67365 57.875 2.83558 58.1761C3.00036 58.4773 3.22479 58.7202 3.50888 58.9048C3.79581 59.0895 4.12109 59.1818 4.48473 59.1818ZM11.9219 60.1193C11.2798 60.1193 10.733 59.9446 10.2812 59.5952C9.82955 59.2429 9.48438 58.733 9.24574 58.0653C9.0071 57.3949 8.88778 56.5852 8.88778 55.6364C8.88778 54.6932 9.0071 53.8878 9.24574 53.2202C9.48722 52.5497 9.83381 52.0384 10.2855 51.6861C10.7401 51.331 11.2855 51.1534 11.9219 51.1534C12.5582 51.1534 13.1023 51.331 13.554 51.6861C14.0085 52.0384 14.3551 52.5497 14.5938 53.2202C14.8352 53.8878 14.956 54.6932 14.956 55.6364C14.956 56.5852 14.8366 57.3949 14.598 58.0653C14.3594 58.733 14.0142 59.2429 13.5625 59.5952C13.1108 59.9446 12.5639 60.1193 11.9219 60.1193ZM11.9219 59.1818C12.5582 59.1818 13.0526 58.875 13.4048 58.2614C13.7571 57.6477 13.9332 56.7727 13.9332 55.6364C13.9332 54.8807 13.8523 54.2372 13.6903 53.706C13.5313 53.1747 13.3011 52.7699 13 52.4915C12.7017 52.2131 12.3423 52.0739 11.9219 52.0739C11.2912 52.0739 10.7983 52.3849 10.4432 53.0071C10.0881 53.6264 9.91051 54.5028 9.91051 55.6364C9.91051 56.392 9.99006 57.0341 10.1491 57.5625C10.3082 58.0909 10.5369 58.4929 10.8352 58.7685C11.1364 59.044 11.4986 59.1818 11.9219 59.1818ZM19.4219 60.1193C18.7798 60.1193 18.233 59.9446 17.7812 59.5952C17.3295 59.2429 16.9844 58.733 16.7457 58.0653C16.5071 57.3949 16.3878 56.5852 16.3878 55.6364C16.3878 54.6932 16.5071 53.8878 16.7457 53.2202C16.9872 52.5497 17.3338 52.0384 17.7855 51.6861C18.2401 51.331 18.7855 51.1534 19.4219 51.1534C20.0582 51.1534 20.6023 51.331 21.054 51.6861C21.5085 52.0384 21.8551 52.5497 22.0938 53.2202C22.3352 53.8878 22.456 54.6932 22.456 55.6364C22.456 56.5852 22.3366 57.3949 22.098 58.0653C21.8594 58.733 21.5142 59.2429 21.0625 59.5952C20.6108 59.9446 20.0639 60.1193 19.4219 60.1193ZM19.4219 59.1818C20.0582 59.1818 20.5526 58.875 20.9048 58.2614C21.2571 57.6477 21.4332 56.7727 21.4332 55.6364C21.4332 54.8807 21.3523 54.2372 21.1903 53.706C21.0313 53.1747 20.8011 52.7699 20.5 52.4915C20.2017 52.2131 19.8423 52.0739 19.4219 52.0739C18.7912 52.0739 18.2983 52.3849 17.9432 53.0071C17.5881 53.6264 17.4105 54.5028 17.4105 55.6364C17.4105 56.392 17.4901 57.0341 17.6491 57.5625C17.8082 58.0909 18.0369 58.4929 18.3352 58.7685C18.6364 59.044 18.9986 59.1818 19.4219 59.1818ZM24.2287 60V51.2727H25.2855V55.6023H25.3878L29.3082 51.2727H30.6889L27.0241 55.2102L30.6889 60H29.4105L26.3764 55.9432L25.2855 57.1705V60H24.2287Z" fill="black" fill-opacity="0.4"/>
<path d="M4.38352 107.119C3.82102 107.119 3.3196 107.023 2.87926 106.83C2.44176 106.636 2.09375 106.368 1.83523 106.024C1.57955 105.678 1.44034 105.276 1.41761 104.818H2.49148C2.5142 105.099 2.6108 105.342 2.78125 105.547C2.9517 105.749 3.17472 105.905 3.45028 106.016C3.72585 106.126 4.03125 106.182 4.36648 106.182C4.74148 106.182 5.07386 106.116 5.36364 105.986C5.65341 105.855 5.88068 105.673 6.04545 105.44C6.21023 105.207 6.29261 104.938 6.29261 104.631C6.29261 104.31 6.21307 104.027 6.05398 103.783C5.89489 103.536 5.66193 103.342 5.35511 103.203C5.0483 103.064 4.6733 102.994 4.23011 102.994H3.53125V102.057H4.23011C4.5767 102.057 4.88068 101.994 5.14205 101.869C5.40625 101.744 5.61222 101.568 5.75994 101.341C5.91051 101.114 5.9858 100.847 5.9858 100.54C5.9858 100.244 5.92045 99.9872 5.78977 99.7685C5.65909 99.5497 5.47443 99.3793 5.2358 99.2571C5 99.1349 4.72159 99.0739 4.40057 99.0739C4.09943 99.0739 3.81534 99.1293 3.5483 99.2401C3.28409 99.348 3.06818 99.5057 2.90057 99.7131C2.73295 99.9176 2.64205 100.165 2.62784 100.455H1.60511C1.62216 99.9972 1.75994 99.5966 2.01847 99.2528C2.27699 98.9062 2.61506 98.6364 3.03267 98.4432C3.45313 98.25 3.91477 98.1534 4.41761 98.1534C4.95739 98.1534 5.42045 98.2628 5.80682 98.4815C6.19318 98.6974 6.49006 98.983 6.69744 99.3381C6.90483 99.6932 7.00852 100.077 7.00852 100.489C7.00852 100.98 6.87926 101.399 6.62074 101.746C6.36506 102.092 6.01705 102.332 5.5767 102.466V102.534C6.12784 102.625 6.55824 102.859 6.8679 103.237C7.17756 103.612 7.33239 104.077 7.33239 104.631C7.33239 105.105 7.20313 105.531 6.9446 105.909C6.68892 106.284 6.33949 106.58 5.89631 106.795C5.45313 107.011 4.94886 107.119 4.38352 107.119ZM11.9219 107.119C11.2798 107.119 10.733 106.945 10.2812 106.595C9.82955 106.243 9.48438 105.733 9.24574 105.065C9.0071 104.395 8.88778 103.585 8.88778 102.636C8.88778 101.693 9.0071 100.888 9.24574 100.22C9.48722 99.5497 9.83381 99.0384 10.2855 98.6861C10.7401 98.331 11.2855 98.1534 11.9219 98.1534C12.5582 98.1534 13.1023 98.331 13.554 98.6861C14.0085 99.0384 14.3551 99.5497 14.5938 100.22C14.8352 100.888 14.956 101.693 14.956 102.636C14.956 103.585 14.8366 104.395 14.598 105.065C14.3594 105.733 14.0142 106.243 13.5625 106.595C13.1108 106.945 12.5639 107.119 11.9219 107.119ZM11.9219 106.182C12.5582 106.182 13.0526 105.875 13.4048 105.261C13.7571 104.648 13.9332 103.773 13.9332 102.636C13.9332 101.881 13.8523 101.237 13.6903 100.706C13.5313 100.175 13.3011 99.7699 13 99.4915C12.7017 99.2131 12.3423 99.0739 11.9219 99.0739C11.2912 99.0739 10.7983 99.3849 10.4432 100.007C10.0881 100.626 9.91051 101.503 9.91051 102.636C9.91051 103.392 9.99006 104.034 10.1491 104.562C10.3082 105.091 10.5369 105.493 10.8352 105.768C11.1364 106.044 11.4986 106.182 11.9219 106.182ZM19.4219 107.119C18.7798 107.119 18.233 106.945 17.7812 106.595C17.3295 106.243 16.9844 105.733 16.7457 105.065C16.5071 104.395 16.3878 103.585 16.3878 102.636C16.3878 101.693 16.5071 100.888 16.7457 100.22C16.9872 99.5497 17.3338 99.0384 17.7855 98.6861C18.2401 98.331 18.7855 98.1534 19.4219 98.1534C20.0582 98.1534 20.6023 98.331 21.054 98.6861C21.5085 99.0384 21.8551 99.5497 22.0938 100.22C22.3352 100.888 22.456 101.693 22.456 102.636C22.456 103.585 22.3366 104.395 22.098 105.065C21.8594 105.733 21.5142 106.243 21.0625 106.595C20.6108 106.945 20.0639 107.119 19.4219 107.119ZM19.4219 106.182C20.0582 106.182 20.5526 105.875 20.9048 105.261C21.2571 104.648 21.4332 103.773 21.4332 102.636C21.4332 101.881 21.3523 101.237 21.1903 100.706C21.0313 100.175 20.8011 99.7699 20.5 99.4915C20.2017 99.2131 19.8423 99.0739 19.4219 99.0739C18.7912 99.0739 18.2983 99.3849 17.9432 100.007C17.5881 100.626 17.4105 101.503 17.4105 102.636C17.4105 103.392 17.4901 104.034 17.6491 104.562C17.8082 105.091 18.0369 105.493 18.3352 105.768C18.6364 106.044 18.9986 106.182 19.4219 106.182ZM24.2287 107V98.2727H25.2855V102.602H25.3878L29.3082 98.2727H30.6889L27.0241 102.21L30.6889 107H29.4105L26.3764 102.943L25.2855 104.17V107H24.2287Z" fill="black" fill-opacity="0.4"/>
<path d="M27.25 154.119C26.608 154.119 26.0611 153.945 25.6094 153.595C25.1577 153.243 24.8125 152.733 24.5739 152.065C24.3352 151.395 24.2159 150.585 24.2159 149.636C24.2159 148.693 24.3352 147.888 24.5739 147.22C24.8153 146.55 25.1619 146.038 25.6136 145.686C26.0682 145.331 26.6136 145.153 27.25 145.153C27.8864 145.153 28.4304 145.331 28.8821 145.686C29.3366 146.038 29.6832 146.55 29.9219 147.22C30.1634 147.888 30.2841 148.693 30.2841 149.636C30.2841 150.585 30.1648 151.395 29.9261 152.065C29.6875 152.733 29.3423 153.243 28.8906 153.595C28.4389 153.945 27.892 154.119 27.25 154.119ZM27.25 153.182C27.8864 153.182 28.3807 152.875 28.733 152.261C29.0852 151.648 29.2614 150.773 29.2614 149.636C29.2614 148.881 29.1804 148.237 29.0185 147.706C28.8594 147.175 28.6293 146.77 28.3281 146.491C28.0298 146.213 27.6705 146.074 27.25 146.074C26.6193 146.074 26.1264 146.385 25.7713 147.007C25.4162 147.626 25.2386 148.503 25.2386 149.636C25.2386 150.392 25.3182 151.034 25.4773 151.562C25.6364 152.091 25.8651 152.493 26.1634 152.768C26.4645 153.044 26.8267 153.182 27.25 153.182Z" fill="black" fill-opacity="0.4"/>
</svg>
